<svg xmlns="http://www.w3.org/2000/svg" width="32" height="32" viewBox="0 0 32 32"><path d="M22,3a3.99189,3.99189,0,0,0-1,7.85858V12c0,3.333-2.49512,4.373-5.38477,5.57715A15.32928,15.32928,0,0,0,11,20.16193V10.85858a4,4,0,1,0-2,0V21.14142a3.9882,3.9882,0,1,0,3.27771.57574,12.70384,12.70384,0,0,1,4.10706-2.29431C19.48535,18.13086,23,16.667,23,12V10.85858A3.99189,3.99189,0,0,0,22,3ZM8,7a2,2,0,1,1,2,2A2,2,0,0,1,8,7Zm2,20a2,2,0,1,1,2-2A2,2,0,0,1,10,27ZM22,9a2,2,0,1,1,2-2A2,2,0,0,1,22,9Z" style="fill:#fff"/></svg>