<svg xmlns="http://www.w3.org/2000/svg" width="32" height="32" viewBox="0 0 32 32"><path d="M14.28955,7.94824h1.15479V9.20215h-.53907a.96571.96571,0,0,0-.396.06543.49368.49368,0,0,0-.30225.40234,1.79008,1.79008,0,0,0-.0166.23633v1.77051a1.37389,1.37389,0,0,1-.11035.60547.9027.9027,0,0,1-.269.335.88952.88952,0,0,1-.35206.15429,2.89665,2.89665,0,0,1-.36865.04981v.02148q.17579.01173.36865.044a.85206.85206,0,0,1,.35206.14844.90636.90636,0,0,1,.269.33593,1.37214,1.37214,0,0,1,.11035.6045v1.78222a1.79,1.79,0,0,0,.0166.23633.49364.49364,0,0,0,.30225.40234.96571.96571,0,0,0,.396.06543h.53907v1.25391H14.28955a1.71469,1.71469,0,0,1-.55566-.08789,1.13025,1.13025,0,0,1-.45118-.28613,1.383,1.383,0,0,1-.30224-.5,2.13979,2.13979,0,0,1-.11035-.73145V14.21777a.56411.56411,0,0,0-.14844-.40722.96171.96171,0,0,0-.34619-.23047,1.55259,1.55259,0,0,0-.396-.09863c-.13232-.01465-.23095-.02247-.29736-.02247v-1.2539a2.71645,2.71645,0,0,0,.29736-.02246,1.553,1.553,0,0,0,.396-.09864.93968.93968,0,0,0,.34619-.23144.55862.55862,0,0,0,.14844-.40625V9.543a2.26281,2.26281,0,0,1,.10449-.73145,1.28577,1.28577,0,0,1,.29736-.49511,1.15571,1.15571,0,0,1,.45069-.28028A1.75173,1.75173,0,0,1,14.28955,7.94824Zm4.83984,3.498V9.55371a2.15243,2.15243,0,0,0-.10986-.73144,1.39054,1.39054,0,0,0-.30273-.5,1.13725,1.13725,0,0,0-.44532-.28614,1.59948,1.59948,0,0,0-.52832-.08789h-1.188V9.20215h.53906a.96571.96571,0,0,1,.396.06543.51649.51649,0,0,1,.21485.1709.52686.52686,0,0,1,.08789.23144,1.87775,1.87775,0,0,1,.0166.23633v1.78223a1.37276,1.37276,0,0,0,.10986.60449.90267.90267,0,0,0,.26953.33594.84674.84674,0,0,0,.35206.14843c.12793.02149.251.03614.36816.04395v.02148c-.11719.01465-.24023.03321-.36816.05567a.822.822,0,0,0-.35206.14844.891.891,0,0,0-.26953.335,1.37448,1.37448,0,0,0-.10986.60546v1.77051a1.87762,1.87762,0,0,1-.0166.23633.53153.53153,0,0,1-.08789.23145.52432.52432,0,0,1-.21485.17089.96571.96571,0,0,1-.396.06543h-.53906v1.25391h1.15527a1.75094,1.75094,0,0,0,.56641-.08789,1.11213,1.11213,0,0,0,.44531-.28027,1.38242,1.38242,0,0,0,.29736-.49512,2.15249,2.15249,0,0,0,.10986-.73145V14.21777a.57578.57578,0,0,1,.14307-.40722.92168.92168,0,0,1,.33545-.23047,1.4712,1.4712,0,0,1,.39063-.09863,3.049,3.049,0,0,1,.31884-.02247v-1.2539a2.80251,2.80251,0,0,1-.31884-.02246,1.4716,1.4716,0,0,1-.39063-.09864.90094.90094,0,0,1-.33545-.23144A.57011.57011,0,0,1,19.12939,11.44629ZM26,8.58594V26a3.00328,3.00328,0,0,1-3,3H9a3.00328,3.00328,0,0,1-3-3V6A3.00328,3.00328,0,0,1,9,3H20.41406ZM15.82617,22.044H11.90576v.96582h1.41406V27h1.09229V23.00977h1.41406Zm4.00928,3.45117a1.26267,1.26267,0,0,0-.168-.69336,1.31968,1.31968,0,0,0-.42334-.41309,2.2526,2.2526,0,0,0-.5498-.2373q-.2937-.085-.54932-.168a1.61251,1.61251,0,0,1-.42334-.20313.43663.43663,0,0,1-.09814-.58105.52087.52087,0,0,1,.18212-.1582.949.949,0,0,1,.2378-.08692,1.13516,1.13516,0,0,1,.24511-.02832,1.28931,1.28931,0,0,1,.43018.08106.77614.77614,0,0,1,.36084.248l.749-.81933a1.8708,1.8708,0,0,0-.707-.39844,2.79083,2.79083,0,0,0-.812-.11914,2.488,2.488,0,0,0-.707.10156,1.81263,1.81263,0,0,0-.60547.30469,1.50377,1.50377,0,0,0-.41992.5039,1.48685,1.48685,0,0,0-.15772.7002,1.16214,1.16214,0,0,0,.17139.665,1.34411,1.34411,0,0,0,.43066.40527,2.46574,2.46574,0,0,0,.56006.24512c.20069.06055.38721.12207.56006.18262a1.58912,1.58912,0,0,1,.43018.21972.42028.42028,0,0,1,.17187.35352.40213.40213,0,0,1-.06689.23144.52392.52392,0,0,1-.17481.16114.88957.88957,0,0,1-.24511.09472,1.22167,1.22167,0,0,1-.26954.03125,1.20514,1.20514,0,0,1-.52832-.123,1.12319,1.12319,0,0,1-.42334-.34571l-.77734.85352a2.23493,2.23493,0,0,0,.77.47559,2.63939,2.63939,0,0,0,.896.14746,2.67047,2.67047,0,0,0,.73144-.09766,1.76874,1.76874,0,0,0,.60938-.30176,1.45667,1.45667,0,0,0,.4165-.51074A1.59269,1.59269,0,0,0,19.83545,25.49512ZM24,9.41406,19.58594,5H9A1.001,1.001,0,0,0,8,6V20H24Z" style="fill:#fff"/></svg>